HIERARCHY
ROOT Hips
{
  OFFSET 5.72205e-005 65.662 3.42586
  CHANNELS 6 Xposition Yposition Zposition Zrotation Xrotation Yrotation
  JOINT Chest
  {
    OFFSET 0 8.7983 -4.7612
    CHANNELS 3 Zrotation Xrotation Yrotation
    JOINT Chest2
    {
      OFFSET 0 8.0291 0.4195
      CHANNELS 3 Zrotation Xrotation Yrotation
      JOINT Chest3
      {
        OFFSET 0 9.9351 -2.2114
        CHANNELS 3 Zrotation Xrotation Yrotation
        JOINT Neck
        {
          OFFSET 0 22.3885 -0.4656
          CHANNELS 3 Zrotation Xrotation Yrotation
          JOINT Head
          {
            OFFSET -0.0001 12.643 3.4389
            CHANNELS 3 Zrotation Xrotation Yrotation
            End Site
            {
              OFFSET 0.0001 17.6655 0.5274
            }
          }
        }
        JOINT LeftCollar
        {
          OFFSET 2.2603 21.606 7.4023
          CHANNELS 3 Zrotation Xrotation Yrotation
          JOINT LeftShoulder
          {
            OFFSET 13.5163 -1.1332 -5.0146
            CHANNELS 3 Zrotation Xrotation Yrotation
            JOINT LeftElbow
            {
              OFFSET -0.0995 -28.05 -0.2431
              CHANNELS 3 Zrotation Xrotation Yrotation
              JOINT LeftWrist
              {
                OFFSET 0.0679 -23.3996 -0.1402
                CHANNELS 3 Zrotation Xrotation Yrotation
                JOINT LeftFinger1
                {
                  OFFSET 0.7932 -9.069 2.5189
                  CHANNELS 3 Zrotation Xrotation Yrotation
                  JOINT LeftFinger11
                  {
                    OFFSET -0.8272 -3.3923 0.5977
                    CHANNELS 3 Zrotation Xrotation Yrotation
                    JOINT LeftFinger12
                    {
                      OFFSET -0.5649 -2.3158 0.4082
                      CHANNELS 3 Zrotation Xrotation Yrotation
                      End Site
                      {
                        OFFSET -0.4919 -1.6479 0.2673
                      }
                    }
                  }
                }
                JOINT LeftFinger2
                {
                  OFFSET 0.9159 -9.2044 0.2193
                  CHANNELS 3 Zrotation Xrotation Yrotation
                  JOINT LeftFinger21
                  {
                    OFFSET 0.0117 -4.1944 -0.0248
                    CHANNELS 3 Zrotation Xrotation Yrotation
                    JOINT LeftFinger22
                    {
                      OFFSET 0.0071 -2.3249 -0.0142
                      CHANNELS 3 Zrotation Xrotation Yrotation
                      End Site
                      {
                        OFFSET -0.1475 -2.0882 0.0028
                      }
                    }
                  }
                }
                JOINT LeftFinger3
                {
                  OFFSET 0.6113 -8.7231 -2.0637
                  CHANNELS 3 Zrotation Xrotation Yrotation
                  JOINT LeftFinger31
                  {
                    OFFSET -0.1927 -3.8059 -0.2383
                    CHANNELS 3 Zrotation Xrotation Yrotation
                    JOINT LeftFinger32
                    {
                      OFFSET -0.1091 -2.1688 -0.1362
                      CHANNELS 3 Zrotation Xrotation Yrotation
                      End Site
                      {
                        OFFSET -0.2358 -1.9176 -0.0906
                      }
                    }
                  }
                }
                JOINT LeftFinger4
                {
                  OFFSET -0.6151 -8.0947 -3.5641
                  CHANNELS 3 Zrotation Xrotation Yrotation
                  JOINT LeftFinger41
                  {
                    OFFSET -0.4882 -2.341 -0.6462
                    CHANNELS 3 Zrotation Xrotation Yrotation
                    JOINT LeftFinger42
                    {
                      OFFSET -0.3575 -1.7167 -0.4742
                      CHANNELS 3 Zrotation Xrotation Yrotation
                      End Site
                      {
                        OFFSET -0.4187 -1.5237 -0.3496
                      }
                    }
                  }
                }
                JOINT LeftFinger0
                {
                  OFFSET -1.42 -1.8761 1.4223
                  CHANNELS 3 Zrotation Xrotation Yrotation
                  JOINT LeftFinger01
                  {
                    OFFSET -1.1471 -3.4929 2.6334
                    CHANNELS 3 Zrotation Xrotation Yrotation
                    JOINT LeftFinger02
                    {
                      OFFSET -0.823 -2.3 1.6571
                      CHANNELS 3 Zrotation Xrotation Yrotation
                      End Site
                      {
                        OFFSET -0.5822 -1.6914 1.1582
                      }
                    }
                  }
                }
              }
            }
          }
        }
        JOINT RightCollar
        {
          OFFSET -2.2603 21.606 7.4023
          CHANNELS 3 Zrotation Xrotation Yrotation
          JOINT RightShoulder
          {
            OFFSET -13.5187 -1.1334 -5.0155
            CHANNELS 3 Zrotation Xrotation Yrotation
            JOINT RightElbow
            {
              OFFSET 0.0994 -28.0499 -0.2431
              CHANNELS 3 Zrotation Xrotation Yrotation
              JOINT RightWrist
              {
                OFFSET -0.0679 -23.3996 -0.1402
                CHANNELS 3 Zrotation Xrotation Yrotation
                JOINT RightFinger1
                {
                  OFFSET -0.7932 -9.0691 2.5189
                  CHANNELS 3 Zrotation Xrotation Yrotation
                  JOINT RightFinger11
                  {
                    OFFSET 0.8272 -3.3923 0.5977
                    CHANNELS 3 Zrotation Xrotation Yrotation
                    JOINT RightFinger12
                    {
                      OFFSET 0.565 -2.3158 0.4082
                      CHANNELS 3 Zrotation Xrotation Yrotation
                      End Site
                      {
                        OFFSET 0.4919 -1.6479 0.2673
                      }
                    }
                  }
                }
                JOINT RightFinger2
                {
                  OFFSET -0.916 -9.2044 0.2193
                  CHANNELS 3 Zrotation Xrotation Yrotation
                  JOINT RightFinger21
                  {
                    OFFSET -0.0117 -4.1944 -0.0248
                    CHANNELS 3 Zrotation Xrotation Yrotation
                    JOINT RightFinger22
                    {
                      OFFSET -0.0071 -2.3249 -0.0142
                      CHANNELS 3 Zrotation Xrotation Yrotation
                      End Site
                      {
                        OFFSET 0.1475 -2.0882 0.0028
                      }
                    }
                  }
                }
                JOINT RightFinger3
                {
                  OFFSET -0.6113 -8.7231 -2.0637
                  CHANNELS 3 Zrotation Xrotation Yrotation
                  JOINT RightFinger31
                  {
                    OFFSET 0.1927 -3.8059 -0.2383
                    CHANNELS 3 Zrotation Xrotation Yrotation
                    JOINT RightFinger32
                    {
                      OFFSET 0.1091 -2.1688 -0.1362
                      CHANNELS 3 Zrotation Xrotation Yrotation
                      End Site
                      {
                        OFFSET 0.2358 -1.9176 -0.0906
                      }
                    }
                  }
                }
                JOINT RightFinger4
                {
                  OFFSET 0.6151 -8.0947 -3.564
                  CHANNELS 3 Zrotation Xrotation Yrotation
                  JOINT RightFinger41
                  {
                    OFFSET 0.4882 -2.341 -0.6462
                    CHANNELS 3 Zrotation Xrotation Yrotation
                    JOINT RightFinger42
                    {
                      OFFSET 0.3574 -1.7166 -0.4742
                      CHANNELS 3 Zrotation Xrotation Yrotation
                      End Site
                      {
                        OFFSET 0.4187 -1.5237 -0.3496
                      }
                    }
                  }
                }
                JOINT RightFinger0
                {
                  OFFSET 1.4199 -1.8761 1.4221
                  CHANNELS 3 Zrotation Xrotation Yrotation
                  JOINT RightFinger01
                  {
                    OFFSET 1.1472 -3.4929 2.6336
                    CHANNELS 3 Zrotation Xrotation Yrotation
                    JOINT RightFinger02
                    {
                      OFFSET 0.8229 -2.3 1.6571
                      CHANNELS 3 Zrotation Xrotation Yrotation
                      End Site
                      {
                        OFFSET 0.5822 -1.6914 1.1582
                      }
                    }
                  }
                }
              }
            }
          }
        }
      }
    }
  }
  JOINT RightHip
  {
    OFFSET -9.412 3.9771 -0.7758
    CHANNELS 3 Zrotation Xrotation Yrotation
    JOINT RightKnee
    {
      OFFSET -0.7531 -40.938 0
      CHANNELS 3 Zrotation Xrotation Yrotation
      JOINT RightAnkle
      {
        OFFSET 0 -40.1986 0
        CHANNELS 3 Zrotation Xrotation Yrotation
        JOINT RightToe
        {
          OFFSET 0 -4.4182 9.239
          CHANNELS 3 Zrotation Xrotation Yrotation
          End Site
          {
            OFFSET 0 0 6.1981
          }
        }
      }
    }
  }
  JOINT LeftHip
  {
    OFFSET 9.4119 3.9773 -0.7758
    CHANNELS 3 Zrotation Xrotation Yrotation
    JOINT LeftKnee
    {
      OFFSET 0.7532 -40.9383 0
      CHANNELS 3 Zrotation Xrotation Yrotation
      JOINT LeftAnkle
      {
        OFFSET 0 -40.1986 0
        CHANNELS 3 Zrotation Xrotation Yrotation
        JOINT LeftToe
        {
          OFFSET 0 -4.4182 9.239
          CHANNELS 3 Zrotation Xrotation Yrotation
          End Site
          {
            OFFSET 0 0 6.1981
          }
        }
      }
    }
  }
}
MOTION
Frames:	4
Frame Time:	0.0333333
-2.87276 0.668266 8.98476 -4.77731e-015 17.7006 180 -0.435161 3.83335 0.127653 -0.881873 7.66561 0.285519 -0.881874 7.66562 0.285519 -1.33129e-005 -0.1182 3.60682e-006 0.0499566 -0.0902743 3.97173e-005 -16.8647 -37.598 2.83173 43.5871 3.9078 12.8714 -93.2091 -11.6634 -51.3102 33.1092 4.47384 -27.5368 7.86227e-032 7.95139e-016 -5.66536e-015 4.77083e-015 3.18055e-015 -2.38542e-015 4.77083e-015 1.98785e-015 9.93923e-017 7.86227e-032 7.95139e-016 -5.66536e-015 -0.0128092 0.00232099 9.08892e-005 -1.59028e-015 -1.59028e-015 -5.1684e-015 7.86227e-032 7.95139e-016 -5.66536e-015 -0.016032 0.00299081 0.000867048 -2.55179e-032 -3.97569e-016 -3.67752e-015 7.86227e-032 7.95139e-016 -5.66536e-015 -0.0125834 0.00313564 0.00282948 2.56903e-006 -9.32306e-006 -6.16399e-006 7.86227e-032 7.95139e-016 -5.66536e-015 4.77083e-015 3.18055e-015 -2.38542e-015 4.77083e-015 1.98785e-015 9.93923e-017 1.7362 -37.7454 -15.2019 -46.6714 1.11197 -9.34015 75.9475 -12.8789 47.9308 -14.9051 -10.4422 7.6681 -2.79875e-006 -5.0898e-007 -3.39594e-006 -3.18055e-015 3.97569e-015 4.17448e-015 4.71221e-006 -6.85423e-007 -2.72325e-006 -2.79875e-006 -5.0898e-007 -3.39594e-006 0.0129437 0.00231557 -9.17524e-005 -1.66902e-006 -7.10559e-006 -1.49554e-007 -2.79875e-006 -5.0898e-007 -3.39594e-006 0.0163369 0.00301701 -0.000878972 -1.399e-006 -4.69403e-007 -1.69806e-006 -2.79875e-006 -5.0898e-007 -3.39594e-006 0.0145833 0.00367977 -0.00326389 2.77351e-006 -4.11279e-007 -1.32409e-006 -2.79875e-006 -5.0898e-007 -3.39594e-006 -3.18055e-015 3.97569e-015 4.17448e-015 4.71221e-006 -6.85423e-007 -2.72325e-006 -89.0667 -36.0051 -143.041 -172.875 52.9858 168.355 27.1574 24.4752 -4.79505 -6.81752e-006 1.32028e-006 -1.32021e-007 93.3075 -25.9865 142.707 172.751 53.6312 -168.277 -25.1403 35.0668 2.66405 -3.85145e-016 0 3.18055e-015 
-2.87229 0.64122 9.09608 -4.81777e-015 17.4003 180 -0.4342 3.9291 0.129819 -0.880461 7.85706 0.290589 -0.880466 7.8571 0.290591 3.01761e-006 -0.117759 -7.88915e-007 0.049707 -0.0898227 3.88236e-005 -16.8201 -37.9668 2.63733 43.5871 3.90776 12.8714 -93.4528 -11.6494 -51.3729 33.291 4.26955 -27.5348 5.38829e-007 1.70578e-006 7.6601e-006 1.59028e-015 1.59028e-015 5.96354e-016 -1.59028e-015 -3.97569e-016 3.37934e-015 5.38829e-007 1.70578e-006 7.6601e-006 -0.0128219 0.00233522 9.00222e-005 3.18055e-015 1.59028e-015 -2.08724e-015 5.38829e-007 1.70578e-006 7.6601e-006 -0.016061 0.00298921 0.000861167 -6.36111e-015 -1.98785e-015 4.27387e-015 5.38829e-007 1.70578e-006 7.6601e-006 -0.0125839 0.0031159 0.00282465 -1.59028e-015 -1.59028e-015 -3.37934e-015 5.38829e-007 1.70578e-006 7.6601e-006 1.59028e-015 1.59028e-015 5.96354e-016 -1.59028e-015 -3.97569e-016 3.37934e-015 1.40751 -38.0281 -15.2463 -46.5486 1.07123 -9.33975 76.1542 -12.8716 47.989 -15.2031 -10.7336 7.4983 3.31307e-006 9.4994e-006 -4.42111e-006 -1.10436e-006 -1.02796e-005 1.4737e-006 -4.77083e-015 2.38542e-015 1.78906e-015 3.31307e-006 9.4994e-006 -4.42111e-006 0.0129609 0.00231891 -9.34447e-005 1.59028e-015 3.18055e-015 -1.98785e-016 3.31307e-006 9.4994e-006 -4.42111e-006 0.0163356 0.00301344 -0.000877771 5.24151e-032 -7.95139e-016 3.77691e-015 3.31307e-006 9.4994e-006 -4.42111e-006 0.0146003 0.00368096 -0.00327324 -5.27699e-006 9.56524e-007 1.09964e-006 3.31307e-006 9.4994e-006 -4.42111e-006 -1.10436e-006 -1.02796e-005 1.4737e-006 -4.77083e-015 2.38542e-015 1.78906e-015 -89.3022 -36.0807 -143.463 -172.876 52.9821 168.357 27.1562 24.468 -4.79218 -4.34841e-016 -1.32049e-006 3.18055e-015 93.4835 -26.0715 143.094 172.753 53.6254 -168.277 -25.2468 35.0839 2.81774 1.36493e-005 -1.77209e-006 4.02042e-008 
-2.87182 0.614319 9.20756 -4.85809e-015 17.1 180 -0.433234 4.02478 0.131984 -0.879054 8.04844 0.295659 -0.879056 8.04844 0.29566 1.52625e-006 -0.11716 -6.13671e-007 0.0494576 -0.0893705 3.81335e-005 -16.7768 -38.3356 2.44236 43.5872 3.90772 12.8714 -93.6964 -11.6352 -51.4357 33.4727 4.06528 -27.5322 -1.59028e-015 -1.98785e-015 -1.98785e-016 -4.55184e-032 -7.95139e-016 -3.27995e-015 -1.59314e-031 -2.78299e-015 -3.27995e-015 -1.59028e-015 -1.98785e-015 -1.98785e-016 -0.0128091 0.00233001 8.14567e-005 -1.59028e-015 3.97569e-016 -9.24349e-015 -1.59028e-015 -1.98785e-015 -1.98785e-016 -0.0160474 0.00300329 0.000861728 6.89673e-033 -1.98785e-015 1.98785e-016 -1.59028e-015 -1.98785e-015 -1.98785e-016 -0.0125711 0.00313127 0.00282117 -4.77083e-015 1.59028e-015 -9.93923e-017 -1.59028e-015 -1.98785e-015 -1.98785e-016 -4.55184e-032 -7.95139e-016 -3.27995e-015 -1.59314e-031 -2.78299e-015 -3.27995e-015 1.07726 -38.3104 -15.293 -46.428 1.02623 -9.33915 76.3614 -12.863 48.0426 -15.5023 -11.0242 7.32675 -3.18055e-015 3.97569e-015 -1.39149e-015 -1.59028e-015 1.59028e-015 -3.77691e-015 -3.18055e-015 2.38542e-015 -5.96354e-016 -3.18055e-015 3.97569e-015 -1.39149e-015 0.0129398 0.0023121 -9.37878e-005 -3.18055e-015 3.97569e-015 2.52457e-014 -3.18055e-015 3.97569e-015 -1.39149e-015 0.0163546 0.00301659 -0.000862566 -3.18055e-015 3.18055e-015 3.97569e-015 -3.18055e-015 3.97569e-015 -1.39149e-015 0.0145646 0.00366829 -0.00325014 3.58424e-006 -1.22984e-006 -5.96939e-006 -3.18055e-015 3.97569e-015 -1.39149e-015 -1.59028e-015 1.59028e-015 -3.77691e-015 -3.18055e-015 2.38542e-015 -5.96354e-016 -89.5386 -36.1549 -143.886 -172.877 52.9786 168.359 27.155 24.4609 -4.7893 -5.70925e-009 8.81809e-007 8.26672e-007 93.6602 -26.1553 143.483 172.754 53.6197 -168.278 -25.3534 35.1007 2.97156 4.34841e-017 1.49089e-016 -1.59028e-015 
-2.87135 0.587585 9.31919 -4.89829e-015 16.7997 180 -0.432266 4.12044 0.13415 -0.87765 8.2397 0.300728 -0.877651 8.23972 0.300729 -3.92209e-006 -0.116505 1.15555e-006 0.0492077 -0.0889205 3.828e-005 -16.7349 -38.7043 2.24682 43.5871 3.90778 12.8714 -93.9399 -11.6207 -51.4985 33.6544 3.86103 -27.5289 -6.15259e-007 3.72557e-006 1.52326e-005 1.43367e-006 -3.31282e-007 1.65107e-006 3.02021e-006 1.71061e-006 7.79575e-006 -6.15259e-007 3.72557e-006 1.52326e-005 -0.0127978 0.00233066 7.74626e-005 1.12553e-006 8.67938e-006 9.26743e-006 -6.15259e-007 3.72557e-006 1.52326e-005 -0.0160345 0.00299619 0.000860888 -2.30521e-007 -5.04882e-007 1.56135e-006 -6.15259e-007 3.72557e-006 1.52326e-005 -0.012577 0.00312442 0.00281975 2.04735e-006 -7.8032e-006 3.022e-006 -6.15259e-007 3.72557e-006 1.52326e-005 1.43367e-006 -3.31282e-007 1.65107e-006 3.02021e-006 1.71061e-006 7.79575e-006 0.745463 -38.5925 -15.3419 -46.3065 0.983021 -9.33848 76.5685 -12.8546 48.0981 -15.8027 -11.3138 7.15347 5.51738e-033 1.59028e-015 -1.98785e-016 -3.81736e-006 -3.91853e-006 -1.7071e-006 1.59028e-015 0 3.57812e-015 5.51738e-033 1.59028e-015 -1.98785e-016 0.012942 0.00231138 -9.69124e-005 -6.36111e-015 -1.59028e-015 -3.77691e-015 5.51738e-033 1.59028e-015 -1.98785e-016 0.0163394 0.0030324 -0.000871596 1.59028e-015 -7.95139e-016 3.37934e-015 5.51738e-033 1.59028e-015 -1.98785e-016 0.0145477 0.00367611 -0.0032593 -6.36111e-015 -3.18055e-015 -4.77083e-015 5.51738e-033 1.59028e-015 -1.98785e-016 -3.81736e-006 -3.91853e-006 -1.7071e-006 1.59028e-015 0 3.57812e-015 -89.7759 -36.2276 -144.31 -172.878 52.9748 168.361 27.1537 24.4536 -4.78642 1.353e-008 8.83392e-007 -1.65362e-006 93.8379 -26.2379 143.871 172.756 53.6139 -168.279 -25.4601 35.1174 3.12554 3.41661e-016 -4.96962e-017 -3.18055e-015 
